<svg width="94" height="37" viewBox="0 0 94 37" fill="none" xmlns="http://www.w3.org/2000/svg">
<path d="M16.0215 0L17.7975 15.4239L32.043 9.25L19.5735 18.5L32.043 27.75L17.7975 21.5761L16.0215 37L14.2455 21.5761L0 27.75L12.4695 18.5L0 9.25L14.2455 15.4239L16.0215 0Z" fill="url(#paint0_linear_11_11)"/>
<path d="M47.2528 14.2727H49.0767V20.358C49.0767 20.9205 48.9503 21.4091 48.6974 21.8239C48.4474 22.2386 48.0994 22.5582 47.6534 22.7827C47.2074 23.0071 46.6889 23.1193 46.098 23.1193C45.5724 23.1193 45.0952 23.027 44.6662 22.8423C44.2401 22.6548 43.902 22.3707 43.652 21.9901C43.402 21.6065 43.2784 21.125 43.2812 20.5455H45.1179C45.1236 20.7756 45.1705 20.973 45.2585 21.1378C45.3494 21.2997 45.473 21.4247 45.6293 21.5128C45.7884 21.598 45.9759 21.6406 46.1918 21.6406C46.419 21.6406 46.6108 21.5923 46.767 21.4957C46.9261 21.3963 47.0469 21.2514 47.1293 21.0611C47.2116 20.8707 47.2528 20.6364 47.2528 20.358V14.2727ZM53.5256 23.1278C52.8636 23.1278 52.2912 22.9872 51.8082 22.706C51.3281 22.4219 50.9574 22.027 50.696 21.5213C50.4347 21.0128 50.304 20.4233 50.304 19.7528C50.304 19.0767 50.4347 18.4858 50.696 17.9801C50.9574 17.4716 51.3281 17.0767 51.8082 16.7955C52.2912 16.5114 52.8636 16.3693 53.5256 16.3693C54.1875 16.3693 54.7585 16.5114 55.2386 16.7955C55.7216 17.0767 56.0938 17.4716 56.3551 17.9801C56.6165 18.4858 56.7472 19.0767 56.7472 19.7528C56.7472 20.4233 56.6165 21.0128 56.3551 21.5213C56.0938 22.027 55.7216 22.4219 55.2386 22.706C54.7585 22.9872 54.1875 23.1278 53.5256 23.1278ZM53.5341 21.7216C53.8352 21.7216 54.0866 21.6364 54.2884 21.4659C54.4901 21.2926 54.642 21.0568 54.7443 20.7585C54.8494 20.4602 54.902 20.1207 54.902 19.7401C54.902 19.3594 54.8494 19.0199 54.7443 18.7216C54.642 18.4233 54.4901 18.1875 54.2884 18.0142C54.0866 17.8409 53.8352 17.7543 53.5341 17.7543C53.2301 17.7543 52.9744 17.8409 52.767 18.0142C52.5625 18.1875 52.4077 18.4233 52.3026 18.7216C52.2003 19.0199 52.1491 19.3594 52.1491 19.7401C52.1491 20.1207 52.2003 20.4602 52.3026 20.7585C52.4077 21.0568 52.5625 21.2926 52.767 21.4659C52.9744 21.6364 53.2301 21.7216 53.5341 21.7216ZM57.9616 23V14.2727H59.777V17.554H59.8324C59.9119 17.3778 60.027 17.1989 60.1776 17.017C60.331 16.8324 60.5298 16.679 60.7741 16.5568C61.0213 16.4318 61.3281 16.3693 61.6946 16.3693C62.1719 16.3693 62.6122 16.4943 63.0156 16.7443C63.419 16.9915 63.7415 17.3651 63.983 17.8651C64.2244 18.3622 64.3452 18.9858 64.3452 19.7358C64.3452 20.4659 64.2273 21.0824 63.9915 21.5852C63.7585 22.0852 63.4403 22.4645 63.0369 22.723C62.6364 22.9787 62.1875 23.1065 61.6903 23.1065C61.3381 23.1065 61.0384 23.0483 60.7912 22.9318C60.5469 22.8153 60.3466 22.669 60.1903 22.4929C60.0341 22.3139 59.9148 22.1335 59.8324 21.9517H59.7514V23H57.9616ZM59.7386 19.7273C59.7386 20.1165 59.7926 20.456 59.9006 20.7457C60.0085 21.0355 60.1648 21.2614 60.3693 21.4233C60.5739 21.5824 60.8224 21.6619 61.1151 21.6619C61.4105 21.6619 61.6605 21.581 61.8651 21.419C62.0696 21.2543 62.2244 21.027 62.3295 20.7372C62.4375 20.4446 62.4915 20.108 62.4915 19.7273C62.4915 19.3494 62.4389 19.017 62.3338 18.7301C62.2287 18.4432 62.0739 18.2187 61.8693 18.0568C61.6648 17.8949 61.4134 17.8139 61.1151 17.8139C60.8196 17.8139 60.5696 17.892 60.3651 18.0483C60.1634 18.2045 60.0085 18.4261 59.9006 18.7131C59.7926 19 59.7386 19.3381 59.7386 19.7273ZM66.9457 23L64.4485 14.2727H66.4641L67.9087 20.3366H67.9812L69.5749 14.2727H71.3008L72.8903 20.3494H72.967L74.4116 14.2727H76.4272L73.93 23H72.1317L70.4698 17.294H70.4016L68.744 23H66.9457ZM77.3807 23V16.4545H79.196V23H77.3807ZM78.2926 15.6108C78.0227 15.6108 77.7912 15.5213 77.598 15.3423C77.4077 15.1605 77.3125 14.9432 77.3125 14.6903C77.3125 14.4403 77.4077 14.2259 77.598 14.0469C77.7912 13.8651 78.0227 13.7741 78.2926 13.7741C78.5625 13.7741 78.7926 13.8651 78.983 14.0469C79.1761 14.2259 79.2727 14.4403 79.2727 14.6903C79.2727 14.9432 79.1761 15.1605 78.983 15.3423C78.7926 15.5213 78.5625 15.6108 78.2926 15.6108ZM86.0962 18.321L84.4343 18.4233C84.4059 18.2812 84.3448 18.1534 84.2511 18.0398C84.1573 17.9233 84.0337 17.831 83.8803 17.7628C83.7298 17.6918 83.5494 17.6562 83.3391 17.6562C83.0579 17.6562 82.8207 17.7159 82.6275 17.8352C82.4343 17.9517 82.3377 18.108 82.3377 18.304C82.3377 18.4602 82.4002 18.5923 82.5252 18.7003C82.6502 18.8082 82.8647 18.8949 83.1687 18.9602L84.3533 19.1989C84.9897 19.3295 85.4641 19.5398 85.7766 19.8295C86.0891 20.1193 86.2454 20.5 86.2454 20.9716C86.2454 21.4006 86.119 21.777 85.8661 22.1009C85.6161 22.4247 85.2724 22.6776 84.8349 22.8594C84.4002 23.0384 83.8988 23.1278 83.3306 23.1278C82.4641 23.1278 81.7738 22.9474 81.2596 22.5866C80.7482 22.223 80.4485 21.7287 80.3604 21.1037L82.146 21.0099C82.1999 21.2741 82.3306 21.4759 82.538 21.6151C82.7454 21.7514 83.011 21.8196 83.3349 21.8196C83.6531 21.8196 83.9087 21.7585 84.1019 21.6364C84.2979 21.5114 84.3974 21.3509 84.4002 21.1548C84.3974 20.9901 84.3278 20.8551 84.1914 20.75C84.055 20.642 83.8448 20.5597 83.5607 20.5028L82.4272 20.277C81.788 20.1491 81.3121 19.9276 80.9996 19.6122C80.69 19.2969 80.5352 18.8949 80.5352 18.4062C80.5352 17.9858 80.6488 17.6236 80.8761 17.3196C81.1062 17.0156 81.4286 16.7812 81.8434 16.6165C82.261 16.4517 82.7496 16.3693 83.3093 16.3693C84.136 16.3693 84.7866 16.544 85.261 16.8935C85.7383 17.2429 86.0167 17.7187 86.0962 18.321ZM90.3714 23.1278C89.6982 23.1278 89.1186 22.9915 88.6328 22.7188C88.1499 22.4432 87.7777 22.054 87.5163 21.5511C87.255 21.0455 87.1243 20.4474 87.1243 19.7571C87.1243 19.0838 87.255 18.4929 87.5163 17.9844C87.7777 17.4759 88.1456 17.0795 88.62 16.7955C89.0973 16.5114 89.657 16.3693 90.299 16.3693C90.7308 16.3693 91.1328 16.4389 91.505 16.5781C91.88 16.7145 92.2067 16.9205 92.4851 17.196C92.7663 17.4716 92.9851 17.8182 93.1413 18.2358C93.2976 18.6506 93.3757 19.1364 93.3757 19.6932V20.1918H87.8487V19.0668H91.6669C91.6669 18.8054 91.6101 18.5739 91.4964 18.3722C91.3828 18.1705 91.2251 18.0128 91.0234 17.8991C90.8246 17.7827 90.593 17.7244 90.3288 17.7244C90.0533 17.7244 89.8089 17.7884 89.5959 17.9162C89.3857 18.0412 89.2209 18.2102 89.1016 18.4233C88.9822 18.6335 88.9212 18.8679 88.9183 19.1264V20.196C88.9183 20.5199 88.978 20.7997 89.0973 21.0355C89.2195 21.2713 89.3913 21.4531 89.6129 21.581C89.8345 21.7088 90.0973 21.7727 90.4013 21.7727C90.603 21.7727 90.7876 21.7443 90.9553 21.6875C91.1229 21.6307 91.2663 21.5455 91.3857 21.4318C91.505 21.3182 91.5959 21.179 91.6584 21.0142L93.3374 21.125C93.2521 21.5284 93.0774 21.8807 92.8132 22.1818C92.5518 22.4801 92.2138 22.7131 91.799 22.8807C91.3871 23.0455 90.9112 23.1278 90.3714 23.1278Z" fill="white"/>
<defs>
<linearGradient id="paint0_linear_11_11" x1="16.0215" y1="0" x2="16.0215" y2="37" gradientUnits="userSpaceOnUse">
<stop stop-color="white"/>
<stop offset="1" stop-color="#666666"/>
</linearGradient>
</defs>
</svg>
