<svg width="91" height="37" viewBox="0 0 91 37" fill="none" xmlns="http://www.w3.org/2000/svg">
<path d="M44.2528 14.2727H46.0767V20.358C46.0767 20.9205 45.9503 21.4091 45.6974 21.8239C45.4474 22.2386 45.0994 22.5582 44.6534 22.7827C44.2074 23.0071 43.6889 23.1193 43.098 23.1193C42.5724 23.1193 42.0952 23.027 41.6662 22.8423C41.2401 22.6548 40.902 22.3707 40.652 21.9901C40.402 21.6065 40.2784 21.125 40.2812 20.5455H42.1179C42.1236 20.7756 42.1705 20.973 42.2585 21.1378C42.3494 21.2997 42.473 21.4247 42.6293 21.5128C42.7884 21.598 42.9759 21.6406 43.1918 21.6406C43.419 21.6406 43.6108 21.5923 43.767 21.4957C43.9261 21.3963 44.0469 21.2514 44.1293 21.0611C44.2116 20.8707 44.2528 20.6364 44.2528 20.358V14.2727ZM50.5256 23.1278C49.8636 23.1278 49.2912 22.9872 48.8082 22.706C48.3281 22.4219 47.9574 22.027 47.696 21.5213C47.4347 21.0128 47.304 20.4233 47.304 19.7528C47.304 19.0767 47.4347 18.4858 47.696 17.9801C47.9574 17.4716 48.3281 17.0767 48.8082 16.7955C49.2912 16.5114 49.8636 16.3693 50.5256 16.3693C51.1875 16.3693 51.7585 16.5114 52.2386 16.7955C52.7216 17.0767 53.0938 17.4716 53.3551 17.9801C53.6165 18.4858 53.7472 19.0767 53.7472 19.7528C53.7472 20.4233 53.6165 21.0128 53.3551 21.5213C53.0938 22.027 52.7216 22.4219 52.2386 22.706C51.7585 22.9872 51.1875 23.1278 50.5256 23.1278ZM50.5341 21.7216C50.8352 21.7216 51.0866 21.6364 51.2884 21.4659C51.4901 21.2926 51.642 21.0568 51.7443 20.7585C51.8494 20.4602 51.902 20.1207 51.902 19.7401C51.902 19.3594 51.8494 19.0199 51.7443 18.7216C51.642 18.4233 51.4901 18.1875 51.2884 18.0142C51.0866 17.8409 50.8352 17.7543 50.5341 17.7543C50.2301 17.7543 49.9744 17.8409 49.767 18.0142C49.5625 18.1875 49.4077 18.4233 49.3026 18.7216C49.2003 19.0199 49.1491 19.3594 49.1491 19.7401C49.1491 20.1207 49.2003 20.4602 49.3026 20.7585C49.4077 21.0568 49.5625 21.2926 49.767 21.4659C49.9744 21.6364 50.2301 21.7216 50.5341 21.7216ZM54.9616 23V14.2727H56.777V17.554H56.8324C56.9119 17.3778 57.027 17.1989 57.1776 17.017C57.331 16.8324 57.5298 16.679 57.7741 16.5568C58.0213 16.4318 58.3281 16.3693 58.6946 16.3693C59.1719 16.3693 59.6122 16.4943 60.0156 16.7443C60.419 16.9915 60.7415 17.3651 60.983 17.8651C61.2244 18.3622 61.3452 18.9858 61.3452 19.7358C61.3452 20.4659 61.2273 21.0824 60.9915 21.5852C60.7585 22.0852 60.4403 22.4645 60.0369 22.723C59.6364 22.9787 59.1875 23.1065 58.6903 23.1065C58.3381 23.1065 58.0384 23.0483 57.7912 22.9318C57.5469 22.8153 57.3466 22.669 57.1903 22.4929C57.0341 22.3139 56.9148 22.1335 56.8324 21.9517H56.7514V23H54.9616ZM56.7386 19.7273C56.7386 20.1165 56.7926 20.456 56.9006 20.7457C57.0085 21.0355 57.1648 21.2614 57.3693 21.4233C57.5739 21.5824 57.8224 21.6619 58.1151 21.6619C58.4105 21.6619 58.6605 21.581 58.8651 21.419C59.0696 21.2543 59.2244 21.027 59.3295 20.7372C59.4375 20.4446 59.4915 20.108 59.4915 19.7273C59.4915 19.3494 59.4389 19.017 59.3338 18.7301C59.2287 18.4432 59.0739 18.2187 58.8693 18.0568C58.6648 17.8949 58.4134 17.8139 58.1151 17.8139C57.8196 17.8139 57.5696 17.892 57.3651 18.0483C57.1634 18.2045 57.0085 18.4261 56.9006 18.7131C56.7926 19 56.7386 19.3381 56.7386 19.7273ZM63.9457 23L61.4485 14.2727H63.4641L64.9087 20.3366H64.9812L66.5749 14.2727H68.3008L69.8903 20.3494H69.967L71.4116 14.2727H73.4272L70.93 23H69.1317L67.4698 17.294H67.4016L65.744 23H63.9457ZM74.3807 23V16.4545H76.196V23H74.3807ZM75.2926 15.6108C75.0227 15.6108 74.7912 15.5213 74.598 15.3423C74.4077 15.1605 74.3125 14.9432 74.3125 14.6903C74.3125 14.4403 74.4077 14.2259 74.598 14.0469C74.7912 13.8651 75.0227 13.7741 75.2926 13.7741C75.5625 13.7741 75.7926 13.8651 75.983 14.0469C76.1761 14.2259 76.2727 14.4403 76.2727 14.6903C76.2727 14.9432 76.1761 15.1605 75.983 15.3423C75.7926 15.5213 75.5625 15.6108 75.2926 15.6108ZM83.0962 18.321L81.4343 18.4233C81.4059 18.2812 81.3448 18.1534 81.2511 18.0398C81.1573 17.9233 81.0337 17.831 80.8803 17.7628C80.7298 17.6918 80.5494 17.6562 80.3391 17.6562C80.0579 17.6562 79.8207 17.7159 79.6275 17.8352C79.4343 17.9517 79.3377 18.108 79.3377 18.304C79.3377 18.4602 79.4002 18.5923 79.5252 18.7003C79.6502 18.8082 79.8647 18.8949 80.1687 18.9602L81.3533 19.1989C81.9897 19.3295 82.4641 19.5398 82.7766 19.8295C83.0891 20.1193 83.2454 20.5 83.2454 20.9716C83.2454 21.4006 83.119 21.777 82.8661 22.1009C82.6161 22.4247 82.2724 22.6776 81.8349 22.8594C81.4002 23.0384 80.8988 23.1278 80.3306 23.1278C79.4641 23.1278 78.7738 22.9474 78.2596 22.5866C77.7482 22.223 77.4485 21.7287 77.3604 21.1037L79.146 21.0099C79.1999 21.2741 79.3306 21.4759 79.538 21.6151C79.7454 21.7514 80.011 21.8196 80.3349 21.8196C80.6531 21.8196 80.9087 21.7585 81.1019 21.6364C81.2979 21.5114 81.3974 21.3509 81.4002 21.1548C81.3974 20.9901 81.3278 20.8551 81.1914 20.75C81.055 20.642 80.8448 20.5597 80.5607 20.5028L79.4272 20.277C78.788 20.1491 78.3121 19.9276 77.9996 19.6122C77.69 19.2969 77.5352 18.8949 77.5352 18.4062C77.5352 17.9858 77.6488 17.6236 77.8761 17.3196C78.1062 17.0156 78.4286 16.7812 78.8434 16.6165C79.261 16.4517 79.7496 16.3693 80.3093 16.3693C81.136 16.3693 81.7866 16.544 82.261 16.8935C82.7383 17.2429 83.0167 17.7187 83.0962 18.321ZM87.3714 23.1278C86.6982 23.1278 86.1186 22.9915 85.6328 22.7188C85.1499 22.4432 84.7777 22.054 84.5163 21.5511C84.255 21.0455 84.1243 20.4474 84.1243 19.7571C84.1243 19.0838 84.255 18.4929 84.5163 17.9844C84.7777 17.4759 85.1456 17.0795 85.62 16.7955C86.0973 16.5114 86.657 16.3693 87.299 16.3693C87.7308 16.3693 88.1328 16.4389 88.505 16.5781C88.88 16.7145 89.2067 16.9205 89.4851 17.196C89.7663 17.4716 89.9851 17.8182 90.1413 18.2358C90.2976 18.6506 90.3757 19.1364 90.3757 19.6932V20.1918H84.8487V19.0668H88.6669C88.6669 18.8054 88.6101 18.5739 88.4964 18.3722C88.3828 18.1705 88.2251 18.0128 88.0234 17.8991C87.8246 17.7827 87.593 17.7244 87.3288 17.7244C87.0533 17.7244 86.8089 17.7884 86.5959 17.9162C86.3857 18.0412 86.2209 18.2102 86.1016 18.4233C85.9822 18.6335 85.9212 18.8679 85.9183 19.1264V20.196C85.9183 20.5199 85.978 20.7997 86.0973 21.0355C86.2195 21.2713 86.3913 21.4531 86.6129 21.581C86.8345 21.7088 87.0973 21.7727 87.4013 21.7727C87.603 21.7727 87.7876 21.7443 87.9553 21.6875C88.1229 21.6307 88.2663 21.5455 88.3857 21.4318C88.505 21.3182 88.5959 21.179 88.6584 21.0142L90.3374 21.125C90.2521 21.5284 90.0774 21.8807 89.8132 22.1818C89.5518 22.4801 89.2138 22.7131 88.799 22.8807C88.3871 23.0455 87.9112 23.1278 87.3714 23.1278Z" fill="#191919"/>
<path d="M16.0215 0L17.7975 15.4239L32.043 9.25L19.5735 18.5L32.043 27.75L17.7975 21.5761L16.0215 37L14.2455 21.5761L0 27.75L12.4695 18.5L0 9.25L14.2455 15.4239L16.0215 0Z" fill="url(#paint0_linear_11_12)"/>
<defs>
<linearGradient id="paint0_linear_11_12" x1="16.0215" y1="0" x2="16.0215" y2="37" gradientUnits="userSpaceOnUse">
<stop/>
<stop offset="1" stop-color="#666666"/>
</linearGradient>
</defs>
</svg>
